# xmcd
#
# Track frame offsets: 
#        150
#        15102
#        28107
#        45249
#        58724
#        66030
#        80085
#        95549
#        111429
#        125846
#        140595
#        160931
#        176673
#        191413
#        207292
#        226785
#        239381
#        261927
#        305230
#        318712
#
# Disc length: 4594 seconds
#
# Revision: 3
# Processed by: cddbd v1.5.2PL0 Copyright (c) Steve Scherf et al.
# Submitted via: ExactAudioCopy v0.99pb5
#
DISCID=1d11f014
DTITLE=Gérard Lenorman - La Selection - Best Of - CD 2
DYEAR=2013
DGENRE=Pop
TTITLE0=La ballade des gens heureux
TTITLE1=Les matins d'hiver
TTITLE2=Gentil dauphin triste
TTITLE3=Le funambule
TTITLE4=Drôle de chanson
TTITLE5=Quelque chose et moi
TTITLE6=Je vous écris
TTITLE7=Après tant de souvenirs
TTITLE8=La prière (je vous salue Marie)
TTITLE9=Le magicien
TTITLE10=Le bleu des regrets
TTITLE11=Waterloo
TTITLE12=Les jours heureux
TTITLE13=La belle et la bête
TTITLE14=L'enfant des cathédrales
TTITLE15=La petite valse
TTITLE16=Solitaire
TTITLE17=Nostalgies
TTITLE18=Sous d'autres latitudes
TTITLE19=Comme une chanson bizarre
EXTD=YEAR: 2007
EXTT0=
EXTT1=
EXTT2=
EXTT3=
EXTT4=
EXTT5=
EXTT6=
EXTT7=
EXTT8=
EXTT9=
EXTT10=
EXTT11=
EXTT12=
EXTT13=
EXTT14=
EXTT15=
EXTT16=
EXTT17=
EXTT18=
EXTT19=
PLAYORDER=
